# xmcd
#
# Track frame offsets: 
#        150
#        25062
#        51738
#        75022
#        123514
#        144573
#        175102
#        195223
#        220355
#        251861
#
# Disc length: 3665 seconds
#
# Revision: 1
# Processed by: cddbd v1.5.2PL0 Copyright (c) Steve Scherf et al.
# Submitted via: ExactAudioCopy v0.99pb5
#
DISCID=870e4f0a
DTITLE=Jimmy Thackery  - Wild Night Out !
DYEAR=1995
DGENRE=Blues Rock
TTITLE0=Wild Night Out
TTITLE1=You Upset Me Baby
TTITLE2=The Stumble
TTITLE3=If You Go
TTITLE4=Empty Arms Motel
TTITLE5=Edward's Blues
TTITLE6=Flyin' Low
TTITLE7=Trouble Man
TTITLE8=Red House
TTITLE9=I Don't Live Today
EXTD=
EXTT0=
EXTT1=
EXTT2=
EXTT3=
EXTT4=
EXTT5=
EXTT6=
EXTT7=
EXTT8=
EXTT9=
PLAYORDER=
